<svg width="61" height="64" viewBox="0 0 61 64" fill="none" xmlns="http://www.w3.org/2000/svg">
<path d="M47.773 41.9258C46.9411 42.2653 46.2526 42.8827 45.8248 43.6729C45.397 44.4631 45.2565 45.3772 45.4271 46.2594C45.5977 47.1416 46.0689 47.9373 46.7604 48.5111C47.452 49.0848 48.321 49.401 49.2195 49.4058C50.1181 49.4107 50.9905 49.1038 51.6881 48.5376C52.3858 47.9713 52.8655 47.1807 53.0456 46.3004C53.2257 45.42 53.095 44.5045 52.6758 43.7098C52.2566 42.915 51.5747 42.2902 50.7465 41.9418C50.2766 41.7426 49.7718 41.6386 49.2614 41.6358C48.7509 41.6331 48.2451 41.7316 47.773 41.9258ZM51.448 44.6223C51.6567 45.1346 51.6814 45.7034 51.5177 46.2318C51.3539 46.7602 51.012 47.2155 50.5502 47.52C50.0884 47.8245 49.5353 47.9595 48.9851 47.9018C48.4349 47.8442 47.9218 47.5975 47.5331 47.2039C47.1445 46.8102 46.9044 46.294 46.8538 45.7431C46.8031 45.1922 46.9451 44.6409 47.2555 44.183C47.566 43.7251 48.0256 43.389 48.556 43.2321C49.0865 43.0751 49.6549 43.107 50.1645 43.3223C50.4542 43.4431 50.717 43.6202 50.9376 43.8433C51.1583 44.0665 51.3325 44.3313 51.45 44.6223H51.448ZM7.193 31.6728C7.01024 30.9877 6.62842 30.3723 6.09584 29.9043C5.56326 29.4362 4.90385 29.1366 4.201 29.0434C3.49815 28.9502 2.78344 29.0675 2.14725 29.3805C1.51107 29.6935 0.982003 30.1881 0.626958 30.8018C0.271913 31.4155 0.106842 32.1207 0.152624 32.8282C0.198405 33.5358 0.452982 34.2138 0.884157 34.7767C1.31533 35.3395 1.90374 35.7618 2.57495 35.9902C3.24616 36.2186 3.97003 36.2428 4.655 36.0598C5.57292 35.814 6.35575 35.2139 6.83161 34.3914C7.30747 33.5688 7.43745 32.5911 7.193 31.6728ZM4.268 34.6108C3.86974 34.7173 3.44886 34.7032 3.05858 34.5704C2.66831 34.4377 2.32618 34.1921 2.07547 33.8649C1.82477 33.5376 1.67675 33.1434 1.65014 32.732C1.62353 32.3206 1.71953 31.9106 1.926 31.5538C2.13246 31.1969 2.44011 30.9094 2.81003 30.7274C3.17995 30.5455 3.59552 30.4773 4.00418 30.5316C4.41283 30.5859 4.79621 30.7602 5.10581 31.0324C5.41542 31.3045 5.63734 31.6624 5.7435 32.0608C5.81609 32.3251 5.83541 32.6013 5.80034 32.8731C5.76527 33.145 5.67651 33.4072 5.53922 33.6445C5.40193 33.8817 5.21884 34.0893 5.00061 34.2552C4.78238 34.4211 4.53335 34.542 4.268 34.6108ZM59.95 33.2038C59.7154 32.6281 59.2884 32.1516 58.7418 31.8554C58.1952 31.5592 57.5628 31.4618 56.9524 31.5796C56.342 31.6975 55.7913 32.0233 55.3943 32.5016C54.9972 32.98 54.7782 33.5812 54.7748 34.2029C54.7713 34.8245 54.9835 35.4282 55.3752 35.9109C55.7669 36.3937 56.3139 36.7257 56.9229 36.8503C57.532 36.975 58.1654 36.8846 58.7153 36.5946C59.2651 36.3045 59.6974 35.8328 59.9385 35.2598C60.0763 34.9349 60.1482 34.5858 60.1502 34.2329C60.1521 33.88 60.0841 33.5302 59.95 33.2038ZM58.5555 34.6778C58.4489 34.9306 58.2579 35.1386 58.0152 35.2664C57.7724 35.3942 57.4928 35.4339 57.2241 35.3787C56.9553 35.3235 56.7141 35.1768 56.5413 34.9636C56.3686 34.7505 56.2751 34.4841 56.2767 34.2097C56.2784 33.9354 56.3751 33.6701 56.5504 33.4591C56.7257 33.248 56.9688 33.1043 57.2382 33.0524C57.5076 33.0004 57.7866 33.0435 58.0278 33.1742C58.269 33.3049 58.4575 33.5152 58.561 33.7693C58.6204 33.9136 58.6505 34.0683 58.6495 34.2243C58.6486 34.3804 58.6166 34.5342 58.5555 34.6778ZM4.4295 24.5353C4.99069 24.5351 5.53772 24.3592 5.99382 24.0322C6.44991 23.7052 6.79217 23.2437 6.97254 22.7122C7.15291 22.1808 7.16233 21.6063 6.9995 21.0692C6.83666 20.5322 6.50973 20.0596 6.06461 19.7179C5.61948 19.3761 5.07851 19.1824 4.51764 19.1638C3.95676 19.1452 3.40414 19.3027 2.93735 19.6142C2.47056 19.9257 2.11304 20.3755 1.91497 20.9006C1.71691 21.4257 1.68824 21.9996 1.833 22.5418C1.98601 23.1135 2.32341 23.6188 2.79288 23.9793C3.26234 24.3397 3.83763 24.5352 4.4295 24.5353ZM4.1225 20.6998C4.27307 20.6594 4.43012 20.6491 4.58467 20.6695C4.73923 20.6899 4.88824 20.7405 5.02317 20.8186C5.15809 20.8967 5.27629 21.0006 5.37099 21.1245C5.46568 21.2483 5.53501 21.3896 5.575 21.5403C5.63549 21.767 5.62739 22.0066 5.55172 22.2287C5.47606 22.4508 5.33623 22.6455 5.14992 22.7882C4.9636 22.9308 4.73917 23.0151 4.505 23.0302C4.27083 23.0453 4.03744 22.9906 3.83434 22.8731C3.63124 22.7556 3.46754 22.5804 3.36396 22.3699C3.26037 22.1593 3.22155 21.9228 3.25239 21.6902C3.28323 21.4575 3.38236 21.2393 3.53724 21.063C3.69212 20.8867 3.89579 20.7603 4.1225 20.6998ZM10.22 49.7718C10.5649 49.9721 10.9566 50.0778 11.3555 50.0783C11.7043 50.078 12.0484 49.9976 12.3613 49.8434C12.6741 49.6891 12.9474 49.465 13.1599 49.1884C13.3725 48.9119 13.5187 48.5902 13.5873 48.2481C13.6559 47.9061 13.645 47.5529 13.5555 47.2158C13.4589 46.8545 13.2747 46.5225 13.0192 46.2494C12.7638 45.9762 12.4449 45.7703 12.0908 45.6498C11.7367 45.5294 11.3584 45.4981 10.9893 45.5587C10.6202 45.6194 10.2718 45.7701 9.97494 45.9975C9.67803 46.225 9.4418 46.5221 9.28716 46.8627C9.13252 47.2032 9.06424 47.5766 9.08838 47.9499C9.11251 48.3231 9.22832 48.6846 9.42553 49.0024C9.62274 49.3202 9.89528 49.5845 10.219 49.7718H10.22ZM10.688 47.4143C10.7389 47.3262 10.8068 47.249 10.8876 47.1871C10.9684 47.1252 11.0606 47.0799 11.159 47.0538C11.2243 47.0367 11.2915 47.0279 11.359 47.0278C11.5293 47.0283 11.6947 47.085 11.8295 47.1891C11.9643 47.2932 12.061 47.4388 12.1047 47.6034C12.1483 47.768 12.1365 47.9424 12.0709 48.0996C12.0054 48.2568 11.8898 48.388 11.7422 48.4728C11.5945 48.5577 11.423 48.5915 11.2542 48.569C11.0854 48.5465 10.9287 48.4689 10.8085 48.3483C10.6882 48.2278 10.6111 48.0709 10.589 47.902C10.567 47.7331 10.6012 47.5617 10.6865 47.4143H10.688ZM55.837 20.2633C56.4781 20.5328 57.2 20.5368 57.8441 20.2742C58.4881 20.0117 59.0015 19.5042 59.2715 18.8633C59.4727 18.3852 59.5276 17.8582 59.4292 17.349C59.3309 16.8397 59.0838 16.371 58.7191 16.0022C58.3544 15.6334 57.8885 15.381 57.3804 15.2769C56.8722 15.1729 56.3447 15.2219 55.8644 15.4176C55.3841 15.6134 54.9726 15.9472 54.682 16.3769C54.3914 16.8065 54.2348 17.3127 54.2318 17.8313C54.2289 18.35 54.3798 18.8579 54.6656 19.2908C54.9513 19.7236 55.3589 20.0621 55.837 20.2633ZM55.8195 17.4103C55.8763 17.2742 55.9595 17.1507 56.0643 17.047C56.1691 16.9432 56.2934 16.8613 56.43 16.8058C56.5648 16.7509 56.7089 16.7225 56.8545 16.7223C57.096 16.7221 57.3311 16.7996 57.525 16.9434C57.7189 17.0873 57.8614 17.2897 57.9313 17.5208C58.0013 17.7519 57.9949 17.9994 57.9132 18.2266C57.8315 18.4538 57.6788 18.6487 57.4777 18.7823C57.2766 18.916 57.0379 18.9814 56.7967 18.9688C56.5556 18.9561 56.325 18.8662 56.1389 18.7123C55.9529 18.5584 55.8214 18.3486 55.7639 18.1141C55.7063 17.8796 55.7258 17.6328 55.8195 17.4103ZM30.5 35.2668C31.196 35.2437 31.8597 34.9674 32.3665 34.4898C32.4434 34.4262 32.5068 34.348 32.5531 34.2596C32.5994 34.1712 32.6275 34.0745 32.636 33.9751C32.6444 33.8757 32.6329 33.7756 32.6022 33.6807C32.5715 33.5858 32.5221 33.498 32.457 33.4224C32.3919 33.3468 32.3124 33.2849 32.2231 33.2404C32.1338 33.1959 32.0366 33.1697 31.937 33.1633C31.8375 33.1568 31.7376 33.1703 31.6434 33.203C31.5491 33.2356 31.4623 33.2867 31.388 33.3533C31.2789 33.4825 31.143 33.5864 30.9896 33.6577C30.8362 33.7289 30.6691 33.7658 30.5 33.7658C30.3309 33.7658 30.1638 33.7289 30.0104 33.6577C29.8571 33.5864 29.7211 33.4825 29.612 33.3533C29.5377 33.2867 29.4509 33.2356 29.3566 33.203C29.2624 33.1703 29.1625 33.1568 29.063 33.1633C28.9634 33.1697 28.8662 33.1959 28.7769 33.2404C28.6876 33.2849 28.6081 33.3468 28.543 33.4224C28.4779 33.498 28.4285 33.5858 28.3978 33.6807C28.3671 33.7756 28.3556 33.8757 28.364 33.9751C28.3725 34.0745 28.4006 34.1712 28.4469 34.2596C28.4932 34.348 28.5566 34.4262 28.6335 34.4898C29.1403 34.9674 29.804 35.2437 30.5 35.2668ZM34.104 37.8198H34.095C33.5391 37.9316 32.968 37.9465 32.407 37.8638C32.267 37.8433 32.1305 37.8163 31.967 37.7848C31.7335 37.7306 31.4921 37.7189 31.2545 37.7503C31.0058 37.794 30.7695 37.8907 30.5615 38.0338C30.5429 38.0448 30.5216 38.0507 30.5 38.0507C30.4784 38.0507 30.4571 38.0448 30.4385 38.0338C30.2305 37.8907 29.9942 37.794 29.7455 37.7503C29.5079 37.7189 29.2665 37.7306 29.033 37.7848C28.87 37.8163 28.733 37.8433 28.593 37.8638C28.0322 37.9465 27.4613 37.9317 26.9055 37.8198H26.896C26.7656 37.7941 26.6303 37.8177 26.5162 37.8858C26.4021 37.954 26.3173 38.062 26.2781 38.189C26.2389 38.3161 26.2481 38.4531 26.3039 38.5737C26.3598 38.6943 26.4583 38.79 26.5805 38.8423C27.2498 39.1332 27.9749 39.2735 28.7045 39.2533C28.8855 39.2483 29.0685 39.2333 29.224 39.2213C29.37 39.2083 29.4325 39.2323 29.6495 39.3598C29.8892 39.5057 30.1634 39.5851 30.444 39.5898H30.556C30.8366 39.5851 31.1108 39.5057 31.3505 39.3598C31.5675 39.2323 31.63 39.2098 31.776 39.2213C31.9315 39.2333 32.1145 39.2483 32.2955 39.2533C33.0251 39.2735 33.7502 39.1332 34.4195 38.8423C34.5417 38.79 34.6402 38.6943 34.6961 38.5737C34.7519 38.4531 34.7611 38.3161 34.7219 38.189C34.6827 38.062 34.5979 37.954 34.4838 37.8858C34.3697 37.8177 34.2344 37.7941 34.104 37.8198ZM30.956 40.4383C30.8156 40.5129 30.659 40.5519 30.5 40.5519C30.341 40.5519 30.1844 40.5129 30.044 40.4383C29.8665 40.3629 29.6669 40.3588 29.4865 40.4268C29.3061 40.4947 29.1587 40.6296 29.0751 40.8033C28.9915 40.977 28.9779 41.1762 29.0373 41.3596C29.0967 41.543 29.2244 41.6966 29.394 41.7883C29.7375 41.9603 30.1164 42.0498 30.5005 42.0498C30.8846 42.0498 31.2635 41.9603 31.607 41.7883C31.7004 41.7486 31.7848 41.6904 31.855 41.6172C31.9253 41.544 31.9799 41.4573 32.0157 41.3623C32.0515 41.2674 32.0676 41.1662 32.0631 41.0648C32.0586 40.9634 32.0336 40.864 31.9896 40.7726C31.9456 40.6812 31.8835 40.5996 31.807 40.5329C31.7306 40.4662 31.6414 40.4157 31.5449 40.3844C31.4483 40.3532 31.3465 40.3418 31.2454 40.3511C31.1444 40.3603 31.0462 40.39 30.957 40.4383H30.956ZM39.3045 29.5533L39.495 29.4373C39.555 29.3993 39.583 29.3748 39.629 29.3418C39.7761 29.2436 39.9323 29.1599 40.0955 29.0918C40.2416 29.0198 40.4051 28.9906 40.567 29.0078L40.667 29.0188C40.7303 29.0255 40.7943 29.0149 40.8521 28.9882C40.91 28.9614 40.9595 28.9195 40.9954 28.8669C41.0313 28.8143 41.0522 28.7529 41.056 28.6893C41.0599 28.6258 41.0464 28.5623 41.017 28.5058C40.9141 28.3364 40.7712 28.1949 40.6009 28.0936C40.4305 27.9923 40.238 27.9343 40.04 27.9248C39.6862 27.9082 39.3334 27.9736 39.009 28.1158L38.7975 28.2063L38.642 28.2778C38.535 28.3213 38.4305 28.3683 38.319 28.4058C38.104 28.4938 37.88 28.5663 37.658 28.6363C37.2253 28.7736 36.7793 28.865 36.3275 28.9088C35.9237 28.956 35.5146 28.9205 35.125 28.8043L35.052 28.7803C34.9337 28.7419 34.8058 28.7458 34.6901 28.7913C34.5744 28.8368 34.478 28.921 34.4176 29.0297C34.3571 29.1383 34.3363 29.2646 34.3586 29.3869C34.3809 29.5092 34.445 29.62 34.54 29.7003C35.0538 30.1089 35.6901 30.3325 36.3465 30.3353C36.9426 30.3498 37.537 30.2645 38.105 30.0828C38.3824 29.9951 38.6534 29.8884 38.916 29.7633C39.05 29.6998 39.176 29.6248 39.3045 29.5533ZM26.6225 29.1233C26.5784 28.9881 26.4825 28.8758 26.3557 28.8113C26.229 28.7468 26.0818 28.7353 25.9465 28.7793L25.874 28.8028C25.4852 28.9186 25.0769 28.9542 24.674 28.9073C24.2222 28.8635 23.7762 28.7721 23.3435 28.6348C23.1215 28.5648 22.8975 28.4923 22.6825 28.4043C22.571 28.3668 22.4665 28.3198 22.3595 28.2763L22.2 28.2048L21.9885 28.1143C21.6641 27.9721 21.3113 27.9067 20.9575 27.9233C20.7596 27.9328 20.567 27.9908 20.3966 28.0921C20.2263 28.1934 20.0834 28.3349 19.9805 28.5043C19.9482 28.5657 19.9351 28.6354 19.943 28.7043C19.9534 28.7972 20.0003 28.8822 20.0733 28.9406C20.1463 28.999 20.2396 29.026 20.3325 29.0158L20.4325 29.0048C20.5944 28.9876 20.7579 29.0168 20.904 29.0888C21.0671 29.1568 21.2231 29.2406 21.37 29.3388C21.4165 29.3718 21.4445 29.3963 21.5045 29.4343L21.695 29.5503C21.8235 29.6218 21.951 29.6963 22.0825 29.7588C22.3451 29.8839 22.6161 29.9906 22.8935 30.0783C23.4615 30.26 24.0559 30.3453 24.652 30.3308C25.3084 30.328 25.9447 30.1044 26.4585 29.6958C26.5392 29.6271 26.5978 29.5361 26.6269 29.4343C26.6561 29.3325 26.6546 29.2243 26.6225 29.1233Z" fill="#581C87"/>
<path d="M50.6214 57.4829C49.0474 56.0254 46.1715 55.0829 43.3935 54.1674C41.9139 53.7258 40.4665 53.1831 39.0615 52.5429C36.2185 51.1003 36.0615 48.4569 35.9495 46.5269C35.9495 46.4799 35.944 46.4404 35.941 46.3949C37.3462 45.5494 38.6423 44.5345 39.7999 43.3729C41.4237 41.7132 42.6371 39.6971 43.3434 37.4854C45.7969 37.4069 48.2729 34.7883 48.6619 32.4314C48.7056 32.1744 48.7327 31.9148 48.743 31.6544C49.1881 31.487 49.5654 31.1773 49.8165 30.7734C50.711 29.3234 50.2164 27.5799 49.6945 25.7339L49.6624 25.6224C50.7484 21.6904 50.344 13.3674 46.0125 7.37235C42.93 3.10885 35.6305 -1.31015 30.5 0.870852C25.3689 -1.31065 18.0699 3.10835 14.9874 7.37085C10.6539 13.3679 10.2494 21.6909 11.3374 25.6209L11.3054 25.7324C10.7829 27.5784 10.2889 29.3218 11.1829 30.7719C11.4342 31.1755 11.8118 31.4849 12.2569 31.6519C12.267 31.9112 12.2938 32.1695 12.3374 32.4254C12.7269 34.7864 15.2029 37.4054 17.6564 37.4839C18.3626 39.6962 19.576 41.7128 21.2 43.3729C22.3583 44.5345 23.6551 45.5494 25.061 46.3949C25.058 46.4404 25.055 46.4799 25.0525 46.5269C24.9384 48.4569 24.7829 51.1003 21.9404 52.5429C20.5354 53.1831 19.088 53.7258 17.6084 54.1674C14.8284 55.0803 11.9544 56.0254 10.3804 57.4829C8.81832 58.9572 7.60911 60.7651 6.84295 62.7719C6.76822 62.9559 6.76954 63.162 6.84662 63.3451C6.9237 63.5281 7.07024 63.6731 7.25409 63.7483C7.43795 63.8234 7.6441 63.8226 7.82733 63.7459C8.01055 63.6692 8.15589 63.523 8.23145 63.3394C8.9167 61.536 9.99972 59.9104 11.3999 58.5834C12.7334 57.3479 15.5724 56.4154 18.0764 55.5924C19.6288 55.1289 21.1467 54.557 22.6189 53.8809C25.9334 52.1989 26.3734 49.1979 26.5154 47.1439C27.5132 47.593 28.5547 47.9375 29.6235 48.1719C30.2015 48.2995 30.8004 48.2995 31.3785 48.1719C32.4478 47.9371 33.49 47.5924 34.4884 47.1434C34.6304 49.1974 35.0704 52.1984 38.3849 53.8804C39.8572 54.5565 41.3751 55.1284 42.9275 55.5919C45.4315 56.4149 48.2705 57.3474 49.604 58.5829C51.0042 59.9099 52.0872 61.5355 52.7724 63.3389C52.848 63.5225 52.9933 63.6687 53.1766 63.7454C53.3598 63.8221 53.566 63.8229 53.7498 63.7478C53.9337 63.6726 54.0802 63.5276 54.1573 63.3446C54.2344 63.1615 54.2357 62.9554 54.1609 62.7714C53.3941 60.7646 52.1842 58.9569 50.6214 57.4829ZM45.5854 30.5499C45.5499 30.5399 45.5136 30.5327 45.477 30.5284C45.2177 30.5043 44.9563 30.5247 44.7039 30.5889C44.722 30.3389 44.7365 30.0889 44.7495 29.8339C45.0405 30.0879 45.3191 30.3265 45.5854 30.5499ZM43.8354 35.9149C44.1268 34.81 44.3487 33.6879 44.5 32.5554C44.8084 31.9749 45.2 32.0054 45.3315 32.0189C45.5294 32.0379 45.7267 31.9777 45.8802 31.8513C46.0337 31.7249 46.1307 31.5427 46.15 31.3449C46.1623 31.2103 46.1377 31.075 46.0789 30.9534C46.2435 31.0849 46.4085 31.2178 46.561 31.3344C46.7653 31.4903 46.9947 31.6102 47.2394 31.6889C47.2298 31.8544 47.2113 32.0193 47.1839 32.1828C46.9344 33.7024 45.366 35.5204 43.834 35.9123L43.8354 35.9149ZM44.797 8.24985C48.216 12.9814 49.0789 19.6414 48.5159 23.7309C48.2143 23.3141 47.8769 22.9244 47.5075 22.5664C47.3601 22.4407 47.1699 22.3768 46.9765 22.3882C46.7832 22.3996 46.6018 22.4854 46.4702 22.6275C46.3387 22.7697 46.2673 22.9572 46.2708 23.1508C46.2744 23.3444 46.3527 23.5292 46.4894 23.6664C47.167 24.3277 47.7402 25.088 48.1894 25.9214C48.5979 26.8559 49.0895 29.0964 48.5395 29.9854C48.4782 30.0809 48.3944 30.1599 48.2955 30.2155C48.1965 30.271 48.0854 30.3014 47.972 30.3039C47.7926 30.3034 47.6178 30.2472 47.472 30.1429C46.922 29.7214 45.9655 28.9454 44.5535 27.6429C43.168 26.3699 41.5994 24.8244 39.8909 23.0494C37.3804 20.4494 34.5459 17.3324 31.466 13.7914C32.8904 11.7029 31.8625 9.52485 31.019 7.74735C30.6092 7.02438 30.3273 6.23616 30.1854 5.41735C30.1355 4.42135 30.715 2.97085 31.049 2.26735C35.374 0.395852 42.1355 4.56935 44.797 8.24985ZM12.8094 25.9219C13.2584 25.0884 13.8316 24.3282 14.5095 23.6674C14.6462 23.5302 14.7245 23.3454 14.7281 23.1518C14.7317 22.9582 14.6602 22.7707 14.5286 22.6285C14.3971 22.4864 14.2157 22.4006 14.0224 22.3892C13.829 22.3778 13.6388 22.4417 13.4914 22.5674C13.122 22.9254 12.7846 23.3151 12.4829 23.7319C11.9199 19.6424 12.7829 12.9819 16.2019 8.25085C18.4114 5.19635 23.4445 1.79985 27.5625 1.79985C28.2157 1.79381 28.8658 1.89066 29.489 2.08685C28.9907 3.15467 28.7184 4.31388 28.6889 5.49185C28.8279 6.51068 29.1593 7.49379 29.6655 8.38885C30.648 10.4584 31.1975 11.9194 29.9405 13.3174L29.931 13.3274C26.6959 17.0639 23.7254 20.3344 21.1044 23.0499C19.3969 24.8239 17.8284 26.3694 16.4414 27.6439C15.0309 28.9464 14.0765 29.7224 13.522 30.1439C13.383 30.249 13.2132 30.3051 13.0389 30.3034C12.9233 30.3023 12.8097 30.2726 12.7083 30.217C12.6069 30.1613 12.5209 30.0814 12.458 29.9844C11.91 29.0999 12.3999 26.8559 12.8094 25.9219ZM16.2499 29.8314C16.2629 30.0849 16.2774 30.3369 16.2954 30.5864C16.0431 30.5222 15.7817 30.5017 15.5224 30.5259C15.4858 30.5302 15.4495 30.5374 15.4139 30.5474C15.6809 30.3254 15.9596 30.0867 16.2499 29.8314ZM13.814 32.1784C13.7869 32.0163 13.7686 31.8529 13.7589 31.6889C14.0026 31.6116 14.2312 31.4932 14.435 31.3389C14.5885 31.2214 14.7544 31.0889 14.9194 30.9559C14.8617 31.0755 14.8369 31.2084 14.8478 31.3409C14.8586 31.4733 14.9047 31.6005 14.9812 31.7091C15.0577 31.8178 15.1618 31.904 15.2828 31.9589C15.4038 32.0138 15.5373 32.0354 15.6694 32.0214C15.7999 32.0074 16.1919 31.9774 16.5004 32.5578C16.6529 33.6892 16.8753 34.81 17.1664 35.9139C15.6349 35.5174 14.0649 33.6999 13.814 32.1784ZM31.0499 46.7079C30.6862 46.7883 30.3092 46.7883 29.9454 46.7079C26.3499 45.9139 24.1174 44.1189 22.2409 42.2974C20.6872 40.6779 19.5471 38.7075 18.9174 36.5534C18.9098 36.5237 18.9001 36.4946 18.8884 36.4664C18.4551 35.0768 18.1453 33.6518 17.9624 32.2079C17.8064 30.9824 17.7206 29.7491 17.7054 28.5139C19.0244 27.2914 20.4924 25.8434 22.0824 24.1944C23.4694 24.1928 24.8552 24.2741 26.2325 24.4379L26.2579 24.4429C26.4002 24.4697 26.5473 24.4437 26.6717 24.3698C26.7962 24.2959 26.8894 24.1791 26.9339 24.0413C26.9783 23.9036 26.9711 23.7544 26.9133 23.6216C26.8556 23.4889 26.7515 23.3818 26.6205 23.3204C25.9598 23.0254 25.255 22.8416 24.5345 22.7764C24.1856 22.7409 23.8351 22.725 23.4845 22.7289C25.6315 20.4564 27.9844 17.8524 30.5009 14.9619C33.0189 17.8524 35.3715 20.4564 37.5175 22.7289C37.1668 22.7253 36.8163 22.7411 36.4674 22.7764C35.7469 22.8416 35.0421 23.0254 34.3815 23.3204C34.2503 23.3817 34.146 23.4889 34.0882 23.6217C34.0305 23.7546 34.0232 23.9039 34.0678 24.0417C34.1123 24.1796 34.2057 24.2964 34.3303 24.3702C34.4549 24.4441 34.6022 24.4699 34.7444 24.4429L34.7695 24.4379C36.1467 24.2743 37.5325 24.1931 38.9194 24.1949C40.5099 25.8449 41.9785 27.2949 43.296 28.5139C43.2808 29.7487 43.195 30.9818 43.039 32.2069C42.8583 33.6295 42.5545 35.0338 42.131 36.4039C42.1084 36.4552 42.0916 36.5088 42.081 36.5639C41.4512 38.714 40.3126 40.6807 38.7615 42.2974C36.881 44.1184 34.65 45.9134 31.0499 46.7079Z" fill="#581C87"/>
<path d="M15.595 17.8898C15.7056 17.8899 15.8149 17.8656 15.915 17.8186C16.0151 17.7716 16.1036 17.703 16.174 17.6178C16.236 17.5428 22.4305 10.1178 27.298 10.1178C27.497 10.1178 27.6877 10.0388 27.8284 9.89812C27.969 9.75747 28.048 9.56671 28.048 9.36779C28.048 9.16888 27.969 8.97812 27.8284 8.83746C27.6877 8.69681 27.497 8.61779 27.298 8.61779C21.732 8.61779 15.289 16.3363 15.0175 16.6643C14.9276 16.774 14.8706 16.9069 14.8532 17.0477C14.8358 17.1884 14.8586 17.3312 14.9191 17.4595C14.9795 17.5878 15.0751 17.6963 15.1948 17.7725C15.3144 17.8486 15.4532 17.8893 15.595 17.8898ZM33.7 10.1153C38.561 10.1153 44.762 17.5428 44.824 17.6153C44.8868 17.6912 44.9639 17.7541 45.051 17.8002C45.138 17.8463 45.2333 17.8749 45.3314 17.8842C45.4295 17.8935 45.5284 17.8834 45.6226 17.8544C45.7168 17.8255 45.8043 17.7783 45.8803 17.7155C45.9562 17.6528 46.0191 17.5757 46.0652 17.4886C46.1113 17.4016 46.1399 17.3063 46.1492 17.2082C46.1585 17.1101 46.1484 17.0111 46.1194 16.917C46.0905 16.8228 46.0433 16.7352 45.9805 16.6593C45.709 16.3313 39.266 8.61279 33.7 8.61279C33.5011 8.61279 33.3104 8.69181 33.1697 8.83246C33.0291 8.97312 32.95 9.16388 32.95 9.36279C32.95 9.56171 33.0291 9.75247 33.1697 9.89312C33.3104 10.0338 33.5011 10.1128 33.7 10.1128V10.1153Z" fill="#581C87"/>
</svg>
