<svg width="65" height="64" viewBox="0 0 65 64" fill="none" xmlns="http://www.w3.org/2000/svg">
<path d="M5.40381 51.5141C6.25583 52.8809 7.42069 54.0255 8.80223 54.8534C10.1838 55.6813 11.7424 56.1687 13.3495 56.2755C14.9556 56.3992 16.5681 56.1387 18.0535 55.5155C19.539 54.8922 20.8546 53.9242 21.8917 52.6915L29.7757 43.4248C30.525 43.8072 31.3818 43.9243 32.2062 43.7569C33.0307 43.5896 33.774 43.1477 34.3149 42.5034L35.7205 40.8515C37.4574 41.6314 39.3398 42.0347 41.2438 42.0349C45.0705 42.0349 48.8743 40.4228 51.5418 37.2868C51.9335 36.8223 52.1694 36.2464 52.216 35.6405C52.2626 35.0347 52.1175 34.4295 51.8014 33.9105L60.2953 23.9277C60.6152 23.5533 60.8574 23.119 61.0077 22.65C61.158 22.1811 61.2134 21.6869 61.1708 21.1963C61.1099 20.4534 60.8276 19.7459 60.3605 19.1652C60.8435 17.733 59.997 15.8408 58.9935 14.9871C58.6812 14.7199 58.319 14.5172 57.9279 14.3908C57.5368 14.2644 57.1245 14.2167 56.7149 14.2504C56.3052 14.2827 55.906 14.3959 55.5404 14.5835C55.1747 14.771 54.8499 15.0293 54.5848 15.3433C54.3175 15.6553 54.1147 16.0173 53.9883 16.4082C53.8618 16.7991 53.8142 17.2113 53.8482 17.6207C53.9158 18.4527 54.3034 19.2098 54.9398 19.7508C55.6221 20.3305 56.7692 20.77 57.8536 20.77C58.292 20.77 58.7158 20.6903 59.0974 20.5285C59.3047 20.8718 59.3986 21.2718 59.3657 21.6715C59.3327 22.0713 59.1746 22.4504 58.9138 22.7552L50.4248 32.7332C49.8608 32.5003 49.2376 32.4516 48.6442 32.5941C48.0509 32.7365 47.5177 33.0629 47.1209 33.5265C45.7957 35.0802 43.9083 36.045 41.8728 36.2091C39.8373 36.3732 37.8197 35.7233 36.2627 34.402C35.4895 33.7486 34.8537 32.9483 34.3919 32.0475C33.9301 31.1466 33.6515 30.1632 33.5723 29.154C33.4886 28.1453 33.6059 27.13 33.9175 26.167C34.229 25.2039 34.7286 24.3123 35.3872 23.5437C35.7794 23.0792 36.0155 22.5031 36.0621 21.8969C36.1087 21.2907 35.9634 20.6852 35.6468 20.1662L44.1395 10.1834C44.3975 9.87465 44.747 9.65585 45.1375 9.55861C45.5279 9.46137 45.9392 9.49073 46.3119 9.64245C45.9677 11.0468 46.7744 12.8038 47.732 13.6189C48.0442 13.8863 48.4063 14.0891 48.7975 14.2156C49.1886 14.342 49.6009 14.3896 50.0106 14.3555C50.4203 14.3232 50.8195 14.21 51.1851 14.0224C51.5507 13.8348 51.8755 13.5766 52.1407 13.2627C52.408 12.9507 52.6108 12.5887 52.7372 12.1978C52.8637 11.8068 52.9113 11.3947 52.8773 10.9852C52.8454 10.5756 52.7324 10.1764 52.545 9.81076C52.3577 9.44511 52.0996 9.12029 51.7857 8.85513C50.781 8.00139 48.7765 7.47007 47.4409 8.17649C46.685 7.75184 45.8051 7.60276 44.9515 7.75473C44.0978 7.90669 43.3234 8.35026 42.7605 9.00969L34.269 18.9901C33.7052 18.7581 33.0826 18.7099 32.4899 18.8524C31.8971 18.9948 31.3644 19.3206 30.9676 19.7834C29.8134 21.1313 28.9381 22.6947 28.3923 24.3832C27.8466 26.0717 27.6412 27.8517 27.7881 29.6201C27.9729 31.9265 28.736 34.0953 29.981 35.9742L28.5778 37.6237C28.0323 38.2626 27.7178 39.0665 27.6849 39.906C27.652 40.7454 27.9028 41.5715 28.3967 42.2511L20.5114 51.519C19.6565 52.5325 18.5732 53.3284 17.3505 53.8413C16.1278 54.3542 14.8008 54.5693 13.4787 54.469C12.1554 54.3811 10.8719 53.9797 9.73435 53.2979C8.59677 52.6162 7.63765 51.6736 6.93618 50.5481C5.97218 49.0285 5.52114 47.2397 5.64939 45.4448C5.77763 43.6498 6.47839 41.9433 7.64864 40.5762L9.87415 37.9618C11.1342 38.756 12.6386 39.0687 14.1108 38.8424C15.583 38.6161 16.924 37.8661 17.8874 36.7301C20.1069 34.1218 19.7905 30.1949 17.181 27.9754C14.5715 25.756 10.6446 26.0723 8.42509 28.6806C6.40728 31.0535 6.5075 34.5034 8.50117 36.7809L6.26962 39.4025C4.84854 41.0625 3.99753 43.1348 3.84168 45.3144C3.68583 47.4941 4.23337 49.6663 5.40381 51.5117V51.5141ZM56.1135 18.3718C55.8505 18.1447 55.6879 17.8228 55.6613 17.4764C55.6347 17.1299 55.7461 16.787 55.9714 16.5223C56.1966 16.2577 56.5174 16.0929 56.8636 16.0639C57.2099 16.0348 57.5536 16.1439 57.8198 16.3673C58.496 16.9433 58.9368 18.3187 58.5781 18.7401C58.2195 19.1615 56.7922 18.949 56.1135 18.3718ZM48.8634 9.64486C49.4346 9.64486 50.1772 9.86585 50.612 10.2341C50.875 10.4612 51.0376 10.7831 51.0642 11.1296C51.0908 11.4761 50.9794 11.819 50.7541 12.0836C50.5289 12.3482 50.2081 12.513 49.8619 12.5421C49.5156 12.5711 49.1719 12.4621 48.9057 12.2387C48.2283 11.6627 47.7887 10.2873 48.1474 9.86585C48.2754 9.7137 48.5434 9.64486 48.8634 9.64486ZM32.3466 20.9572C32.4391 20.8476 32.5523 20.7575 32.6798 20.6919C32.8073 20.6263 32.9464 20.5866 33.0893 20.5751C33.2322 20.5635 33.376 20.5803 33.5123 20.6246C33.6487 20.6688 33.7749 20.7396 33.8838 20.8328C34.3427 21.2228 34.397 21.9123 34.007 22.37C33.194 23.3195 32.5775 24.4207 32.193 25.6101C31.8085 26.7994 31.6637 28.0532 31.767 29.2989C31.8645 30.5455 32.2083 31.7605 32.7785 32.8733C33.3487 33.9862 34.134 34.9749 35.0889 35.7822C36.0385 36.5947 37.1399 37.2104 38.3294 37.5937C39.5189 37.977 40.7726 38.1202 42.0178 38.015C43.2638 37.9185 44.4783 37.5759 45.5909 37.0069C46.7036 36.4379 47.6923 35.6539 48.5 34.7003C48.5925 34.5906 48.7059 34.5005 48.8336 34.4352C48.9613 34.3699 49.1008 34.3307 49.2438 34.3199C49.4583 34.3039 49.6727 34.3515 49.8602 34.4568C50.0477 34.5621 50.2 34.7204 50.298 34.9118C50.396 35.1033 50.4353 35.3194 50.411 35.533C50.3868 35.7467 50.3 35.9485 50.1615 36.1131C45.9834 41.0242 38.586 41.6207 33.6761 37.4426C32.5024 36.4504 31.5372 35.2352 30.8364 33.8674C30.1355 32.4995 29.7131 31.0062 29.5934 29.474C29.4663 27.9428 29.6442 26.4017 30.1168 24.9398C30.5894 23.4778 31.3473 22.1242 32.3466 20.9572ZM29.9569 38.7963L31.1137 37.4366C31.5436 37.9244 31.9988 38.3942 32.5024 38.8228C33.0095 39.2539 33.5433 39.6283 34.0915 39.9712L32.9347 41.3297C32.5966 41.7282 32.1232 41.9697 31.604 42.0108C31.0823 42.0591 30.5775 41.89 30.1791 41.5519C29.7806 41.2138 29.5391 40.7404 29.498 40.22C29.4557 39.7007 29.6187 39.1935 29.9569 38.7963ZM9.80532 29.8544C10.2187 29.3687 10.733 28.9788 11.3123 28.7119C11.8916 28.4449 12.522 28.3074 13.1599 28.3087C14.2036 28.307 15.2137 28.6778 16.0085 29.3545C16.8957 30.1118 17.4466 31.19 17.5403 32.3527C17.634 33.5155 17.2629 34.668 16.5084 35.5576C15.7512 36.4451 14.673 36.9962 13.5102 37.0899C12.3473 37.1836 11.1948 36.8124 10.3052 36.0575C9.41771 35.3004 8.86667 34.2222 8.77295 33.0593C8.67924 31.8965 9.0505 30.7439 9.80532 29.8544Z" fill="#581C87"/>
<path d="M12.5151 33.3527C12.6866 33.5219 12.9178 33.6181 13.1587 33.6183H13.207C13.3967 33.6069 13.5781 33.5368 13.7262 33.4179H13.7275C13.7799 33.3764 13.8273 33.329 13.8687 33.2766C14.0196 33.0876 14.0894 32.8465 14.0629 32.6062C14.0365 32.3658 13.9158 32.1458 13.7275 31.9942C13.5381 31.8441 13.2971 31.7748 13.0569 31.8015C12.8168 31.8282 12.5968 31.9486 12.445 32.1367C12.306 32.3125 12.2362 32.5331 12.2486 32.7569C12.2611 32.9807 12.355 33.1921 12.5127 33.3514L12.5139 33.3539L12.5151 33.3527Z" fill="#581C87"/>
</svg>
