<svg width="64" height="64" viewBox="0 0 64 64" fill="none" xmlns="http://www.w3.org/2000/svg">
<g clip-path="url(#clip0_161_22867)">
<path d="M38.1288 36.4492C42.9504 33.0644 44.1151 26.4117 40.7301 21.5903C37.3452 16.7688 30.6927 15.604 25.8712 18.9889C21.0497 22.3739 19.8849 29.0264 23.2699 33.8479C23.9798 34.8591 24.86 35.7393 25.8712 36.4492C20.1756 37.4283 16.0099 42.3625 16 48.1417V62.9333C16 63.0734 16.0275 63.2121 16.0811 63.3414C16.1346 63.4708 16.2132 63.5884 16.3122 63.6875C16.4112 63.7865 16.5287 63.8651 16.6581 63.9187C16.7874 63.9723 16.9261 64 17.0661 64H46.9333C47.0734 64 47.2121 63.9725 47.3414 63.9189C47.4708 63.8654 47.5884 63.7868 47.6875 63.6879C47.7865 63.5888 47.8651 63.4713 47.9187 63.3419C47.9723 63.2126 48 63.0739 48 62.9339V48.1416C47.99 42.3625 43.8244 37.4283 38.1288 36.4492ZM23.4667 27.7333C23.4667 23.0205 27.2872 19.2 32 19.2C36.7128 19.2 40.5333 23.0205 40.5333 27.7333C40.5333 32.4461 36.7128 36.2667 32 36.2667C27.2895 36.2613 23.472 32.4439 23.4667 27.7333ZM45.8667 61.8667H18.1333V48.1416C18.1393 42.764 22.4973 38.406 27.8751 38.4H36.1251C41.5027 38.406 45.8607 42.764 45.8667 48.1416V61.8667ZM30.9333 6.4H33.0667V10.6667H30.9333V6.4ZM41.4707 12.044L44.4877 9.0272L45.9961 10.5356L42.9792 13.5527L41.4707 12.044ZM54.4 61.8667H58.6667V64H54.4V61.8667ZM54.4 51.2H58.6667V53.3333H54.4V51.2ZM54.4 40.5333H58.6667V42.6667H54.4V40.5333ZM53.1081 30.5943L57.1555 29.2444L57.8305 31.268L53.7831 32.618L53.1081 30.5943ZM49.7941 19.5328L53.8415 18.1829L54.5164 20.2065L50.4691 21.5565L49.7941 19.5328ZM18.0047 10.5379L19.5135 9.0296L22.53 12.0469L21.0212 13.5552L18.0047 10.5379ZM5.33333 61.8667H9.6V64H5.33333V61.8667ZM5.33333 51.2H9.6V53.3333H5.33333V51.2ZM5.33333 40.5333H9.6V42.6667H5.33333V40.5333ZM6.172 31.2689L6.8464 29.2451L10.8941 30.5937L10.2199 32.6177L6.172 31.2689ZM9.4808 20.2144L10.1555 18.1904L14.2035 19.54L13.5285 21.564L9.4808 20.2144ZM62.9333 4.26667C61.1668 4.2648 59.7352 2.8332 59.7333 1.06667C59.7333 0.783769 59.621 0.512458 59.4209 0.312419C59.2209 0.112381 58.9496 0 58.6667 0C58.3838 0 58.1125 0.112381 57.9124 0.312419C57.7124 0.512458 57.6 0.783769 57.6 1.06667C57.5981 2.8332 56.1665 4.2648 54.4 4.26667C54.1171 4.26667 53.8458 4.37905 53.6458 4.57909C53.4457 4.77913 53.3333 5.05044 53.3333 5.33333C53.3333 5.61623 53.4457 5.88754 53.6458 6.08758C53.8458 6.28762 54.1171 6.4 54.4 6.4C56.1665 6.40187 57.5981 7.83347 57.6 9.6C57.6 9.8829 57.7124 10.1542 57.9124 10.3542C58.1125 10.5543 58.3838 10.6667 58.6667 10.6667C58.9496 10.6667 59.2209 10.5543 59.4209 10.3542C59.621 10.1542 59.7333 9.8829 59.7333 9.6C59.7352 7.83347 61.1668 6.40187 62.9333 6.4C63.2162 6.4 63.4875 6.28762 63.6876 6.08758C63.8876 5.88754 64 5.61623 64 5.33333C64 5.05044 63.8876 4.77913 63.6876 4.57909C63.4875 4.37905 63.2162 4.26667 62.9333 4.26667ZM58.6667 6.40307C58.3623 5.99787 58.0021 5.63773 57.5969 5.33333C58.0021 5.02894 58.3623 4.6688 58.6667 4.2636C58.9711 4.6688 59.3312 5.02894 59.7364 5.33333C59.3312 5.63773 58.9711 5.99787 58.6667 6.40307ZM9.6 4.26667C7.83347 4.2648 6.40187 2.8332 6.4 1.06667C6.4 0.783769 6.28762 0.512458 6.08758 0.312419C5.88754 0.112381 5.61623 0 5.33333 0C5.05044 0 4.77913 0.112381 4.57909 0.312419C4.37905 0.512458 4.26667 0.783769 4.26667 1.06667C4.2648 2.8332 2.8332 4.2648 1.06667 4.26667C0.783769 4.26667 0.512458 4.37905 0.312419 4.57909C0.112381 4.77913 0 5.05044 0 5.33333C0 5.61623 0.112381 5.88754 0.312419 6.08758C0.512458 6.28762 0.783769 6.4 1.06667 6.4C2.8332 6.40187 4.2648 7.83347 4.26667 9.6C4.26667 9.8829 4.37905 10.1542 4.57909 10.3542C4.77913 10.5543 5.05044 10.6667 5.33333 10.6667C5.61623 10.6667 5.88754 10.5543 6.08758 10.3542C6.28762 10.1542 6.4 9.8829 6.4 9.6C6.40187 7.83347 7.83347 6.40187 9.6 6.4C9.8829 6.4 10.1542 6.28762 10.3542 6.08758C10.5543 5.88754 10.6667 5.61623 10.6667 5.33333C10.6667 5.05044 10.5543 4.77913 10.3542 4.57909C10.1542 4.37905 9.8829 4.26667 9.6 4.26667ZM5.33333 6.40307C5.02894 5.99787 4.6688 5.63773 4.2636 5.33333C4.6688 5.02894 5.02894 4.6688 5.33333 4.2636C5.63773 4.6688 5.99787 5.02894 6.40307 5.33333C5.99787 5.63773 5.63773 5.99787 5.33333 6.40307Z" fill="#581C87"/>
</g>
<defs>
<clipPath id="clip0_161_22867">
<rect width="64" height="64" fill="white"/>
</clipPath>
</defs>
</svg>
