<svg width="16" height="18" viewBox="0 0 16 18" fill="none" xmlns="http://www.w3.org/2000/svg">
<path d="M3.43848 3.48001C3.36855 3.48001 3.30148 3.50779 3.25203 3.55724C3.20258 3.60669 3.1748 3.67375 3.1748 3.74368V3.76657C3.1748 3.8365 3.20258 3.90357 3.25203 3.95301C3.30148 4.00246 3.36855 4.03024 3.43848 4.03024C3.50841 4.03024 3.57547 4.00246 3.62492 3.95301C3.67437 3.90357 3.70215 3.8365 3.70215 3.76657V3.74368C3.70215 3.67375 3.67437 3.60669 3.62492 3.55724C3.57547 3.50779 3.50841 3.48001 3.43848 3.48001ZM15.031 1.15383L14.0706 0.599801C13.3894 0.207111 12.617 0.000274357 11.8307 0L8.69725 0C8.50129 0 8.34189 0.159398 8.34189 0.355324V1.54716C8.34189 1.74312 8.50129 1.90252 8.69725 1.90252H9.33509V3.1782H8.80856C8.55125 3.1782 8.34189 3.38755 8.34189 3.64486V4.31652H8.28656C7.32419 4.31652 6.54126 5.09945 6.54126 6.06182V11.7885C6.54126 11.8584 6.56904 11.9254 6.61849 11.9749C6.66794 12.0243 6.735 12.0521 6.80493 12.0521C6.87486 12.0521 6.94193 12.0243 6.99138 11.9749C7.04083 11.9254 7.06861 11.8584 7.06861 11.7885V6.06189C7.06861 5.3903 7.61497 4.84393 8.28656 4.84393H12.7751C13.4467 4.84393 13.9931 5.3903 13.9931 6.06189V16.7693C13.9931 17.1571 13.6776 17.4727 13.2897 17.4727H11.2345C11.0889 17.4727 10.9708 17.5907 10.9708 17.7363C10.9708 17.882 11.0889 18 11.2345 18H13.2897C13.9683 18 14.5204 17.4479 14.5204 16.7693V6.06189C14.5204 5.09952 13.7375 4.31659 12.7751 4.31659H12.7198V3.64493C12.7198 3.38762 12.5104 3.17827 12.2531 3.17827H11.7266V1.90255H14.8305C15.0146 1.90255 15.1704 1.78305 15.218 1.60516C15.2656 1.42727 15.1905 1.2459 15.031 1.15383ZM12.1925 3.70557V4.31659H8.86924V3.70557H12.1925ZM9.86244 3.17823V1.90255H11.1993V3.17823H9.86244ZM11.4629 1.37521H8.86924V0.527344H11.8307C12.5235 0.527344 13.207 0.710367 13.8071 1.05659L14.3594 1.37521H11.4629Z" fill="#52525B"/>
<path d="M10.5306 8.1748C9.40366 8.1748 8.48682 9.09164 8.48682 10.2186V11.7885C8.48682 11.8584 8.5146 11.9255 8.56404 11.975C8.61349 12.0244 8.68056 12.0522 8.75049 12.0522C8.82042 12.0522 8.88748 12.0244 8.93693 11.975C8.98638 11.9255 9.01416 11.8584 9.01416 11.7885V10.2186C9.01416 9.38246 9.69443 8.70215 10.5306 8.70215C11.3668 8.70215 12.0471 9.38246 12.0471 10.2186V12.098C12.0471 12.6318 11.7612 13.1324 11.3011 13.4044C11.2412 13.4401 11.1978 13.4982 11.1806 13.5658C11.1633 13.6334 11.1736 13.7051 11.2091 13.7652C11.2446 13.8252 11.3025 13.8688 11.37 13.8863C11.4376 13.9037 11.5093 13.8937 11.5695 13.8584C12.1893 13.4919 12.5744 12.8174 12.5744 12.098V10.2186C12.5744 9.09164 11.6576 8.1748 10.5306 8.1748Z" fill="#52525B"/>
<path d="M8.94608 12.522H6.10855V12.1075L6.10862 12.1058V9.02714L6.10855 9.02545V6.95534C6.10855 6.4499 5.73575 6.02989 5.25066 5.95585V5.51563C5.25066 5.27287 5.05319 5.0754 4.81044 5.0754H4.71428V3.03848C4.71428 2.73241 4.46527 2.4834 4.15917 2.4834H2.71755C2.41148 2.4834 2.16247 2.73241 2.16247 3.03848V5.07536H2.06632C1.82356 5.07536 1.62609 5.27284 1.62609 5.51559V5.9562C1.19318 6.02318 0.840769 6.36915 0.777945 6.81324C0.773093 6.84753 0.775043 6.88244 0.783682 6.91597C0.792321 6.9495 0.807481 6.98101 0.828296 7.00868C0.849112 7.03635 0.875174 7.05966 0.904996 7.07726C0.934817 7.09486 0.967814 7.10641 1.0021 7.11126C1.14638 7.13193 1.2797 7.03132 1.30012 6.88714C1.33363 6.65022 1.53953 6.47159 1.77909 6.47159H1.88913L1.8898 6.47163H4.98703L4.9877 6.47159H5.09749C5.36422 6.47159 5.58124 6.68861 5.58124 6.95534V8.76346H1.29541V7.84599C1.29541 7.77606 1.26763 7.709 1.21818 7.65955C1.16873 7.6101 1.10167 7.58232 1.03174 7.58232C0.961808 7.58232 0.894742 7.6101 0.845294 7.65955C0.795846 7.709 0.768066 7.77606 0.768066 7.84599V16.9893C0.768066 17.5468 1.22162 18.0004 1.77916 18.0004H1.88045C2.02606 18.0004 2.14412 17.8824 2.14412 17.7367C2.14412 17.5911 2.02606 17.473 1.88045 17.473H1.77916C1.51243 17.473 1.29541 17.256 1.29541 16.9893V12.3695H5.58117V12.522H4.20392C3.18474 12.522 2.35562 13.3511 2.35562 14.3703V16.9848C2.35562 17.5448 2.81121 18.0004 3.37121 18.0004H9.77875C10.3388 18.0004 10.7943 17.5448 10.7943 16.9848V14.3703C10.7944 13.3511 9.96526 12.522 8.94608 12.522ZM2.68978 3.03848C2.68979 3.03113 2.69271 3.02408 2.69791 3.01888C2.70311 3.01368 2.71016 3.01075 2.71752 3.01074H4.15913C4.16649 3.01074 4.17355 3.01366 4.17876 3.01886C4.18397 3.02407 4.1869 3.03112 4.18691 3.03848V5.07536H2.68978V3.03848ZM4.72329 5.94425H2.1534V5.60271H4.72329V5.94425ZM1.29541 11.8422V9.29081H5.58117V11.8422H1.29541ZM2.883 14.3703C2.883 13.6419 3.47559 13.0493 4.20396 13.0493H8.94608C9.67448 13.0493 10.267 13.6419 10.267 14.3703V14.5054H2.883V14.3703ZM10.2671 16.9848C10.267 17.254 10.048 17.473 9.77879 17.473H3.37125C3.10202 17.473 2.883 17.254 2.883 16.9848V15.0328H10.2671V16.9848Z" fill="#52525B"/>
</svg>
