<svg width="64" height="64" viewBox="0 0 64 64" fill="none" xmlns="http://www.w3.org/2000/svg">
<path d="M45.4696 34.4912H36.7733C34.3932 34.4912 32.4578 36.4266 32.4578 38.8067V45.4761C32.4578 47.8561 34.3932 49.7916 36.7733 49.7916H45.4696C47.8497 49.7916 49.7851 47.8561 49.7851 45.4761V38.8067C49.7851 36.4266 47.8497 34.4912 45.4696 34.4912ZM46.6466 45.4761C46.6466 46.13 46.1104 46.653 45.4696 46.653H36.7733C36.1194 46.653 35.5963 46.1169 35.5963 45.4761V38.8067C35.5963 38.1528 36.1325 37.6297 36.7733 37.6297H45.4696C46.1235 37.6297 46.6466 38.1659 46.6466 38.8067V45.4761Z" fill="#581C87"/>
<path d="M64 22.3687C64 22.0941 63.9346 21.8325 63.7908 21.5971L54.2705 4.85826C53.9959 4.3744 53.4728 4.06055 52.9105 4.06055H11.0764C10.5141 4.06055 9.99101 4.36132 9.71639 4.85826L0.209236 21.5971C0.0784634 21.8325 0 22.0941 0 22.3687C0 26.1218 2.26236 29.3388 5.49244 30.7643V58.3703C5.49244 59.2334 6.19861 59.9396 7.06171 59.9396H56.9252C57.7883 59.9396 58.4945 59.2334 58.4945 58.3703V30.9604C58.4945 30.895 58.4945 30.8427 58.4814 30.7904C61.7246 29.365 64 26.1349 64 22.3687ZM11.9918 7.21216H51.9951L59.436 20.3025H4.56396L11.9918 7.21216ZM45.548 23.4279C45.0511 26.2526 42.5795 28.3973 39.611 28.3973C36.6424 28.3973 34.1708 26.2526 33.6739 23.4279H45.548ZM30.3392 23.4279C29.8423 26.2526 27.3707 28.3973 24.4021 28.3973C21.4336 28.3973 18.962 26.2526 18.452 23.4279H30.3392ZM3.24315 23.4279H15.1304C14.6334 26.2526 12.1488 28.3973 9.18022 28.3973C6.21169 28.4104 3.74009 26.2526 3.24315 23.4279ZM26.3637 56.801H17.3404V39.866C17.3404 38.6368 18.3343 37.6298 19.5766 37.6298H24.1406C25.3698 37.6298 26.3768 38.6237 26.3768 39.866V56.801H26.3637ZM55.3559 56.801H29.5022V39.866C29.5022 36.9106 27.096 34.4913 24.1275 34.4913H19.5635C16.6081 34.4913 14.1888 36.8975 14.1888 39.866V56.8141H8.63098V31.5358C8.81406 31.5489 8.99714 31.5489 9.18022 31.5489C12.3449 31.5489 15.1434 29.9404 16.7912 27.495C18.4389 29.9404 21.2374 31.5489 24.4021 31.5489C27.5668 31.5489 30.3523 29.9404 32.0131 27.495C33.6608 29.9404 36.4593 31.5489 39.611 31.5489C42.7756 31.5489 45.5611 29.9404 47.2088 27.495C48.8566 29.9404 51.6551 31.5489 54.8198 31.5489C55.0029 31.5489 55.1729 31.5358 55.3559 31.5358V56.801ZM54.8198 28.4104C51.8512 28.4104 49.3796 26.2657 48.8827 23.441H60.7699C60.2599 26.2526 57.7883 28.4104 54.8198 28.4104Z" fill="#581C87"/>
</svg>
